<?xml version="1.0" encoding="UTF-8" standalone="no"?>
<!-- Created with Inkscape (http://www.inkscape.org/) -->

<svg
   xmlns:dc="http://purl.org/dc/elements/1.1/"
   xmlns:cc="http://creativecommons.org/ns#"
   xmlns:rdf="http://www.w3.org/1999/02/22-rdf-syntax-ns#"
   xmlns:svg="http://www.w3.org/2000/svg"
   xmlns="http://www.w3.org/2000/svg"
   xmlns:sodipodi="http://sodipodi.sourceforge.net/DTD/sodipodi-0.dtd"
   xmlns:inkscape="http://www.inkscape.org/namespaces/inkscape"
   id="svg2"
   sodipodi:docname="coffeecup-colour.svg"
   viewBox="0 0 126.92 205.37"
   version="1.1"
   inkscape:version="0.91 r13725">
  <defs
     id="defs4185" />
  <title
     id="title4121">café</title>
  <sodipodi:namedview
     id="base"
     fit-margin-left="0"
     inkscape:zoom="4.0468748"
     borderopacity="1.0"
     inkscape:current-layer="layer1"
     inkscape:cx="142.63683"
     inkscape:cy="102.56276"
     inkscape:window-maximized="1"
     showgrid="false"
     fit-margin-right="0"
     showguides="true"
     bordercolor="#666666"
     inkscape:window-x="4"
     inkscape:guide-bbox="true"
     inkscape:window-y="1"
     fit-margin-bottom="0"
     inkscape:window-width="1916"
     inkscape:pageopacity="0.0"
     inkscape:pageshadow="2"
     pagecolor="#ffffff"
     inkscape:document-units="px"
     inkscape:window-height="1035"
     fit-margin-top="0" />
  <g
     id="layer1"
     inkscape:label="Calque 1"
     inkscape:groupmode="layer"
     transform="translate(-246.62 -111.68)">
    <path
       id="path4083"
       sodipodi:rx="74.872589"
       sodipodi:ry="21.745173"
       style="stroke-linejoin:round;stroke:#000000;stroke-linecap:round;stroke-width:2.6941;fill:#e1dbd2;fill-opacity:1"
       sodipodi:type="arc"
       d="M -159.62935,64.4394 A 74.872589,21.745173 0 0 1 -234.50194,86.184572 74.872589,21.745173 0 0 1 -309.37453,64.4394 74.872589,21.745173 0 0 1 -234.50194,42.694227 74.872589,21.745173 0 0 1 -159.62935,64.4394 Z"
       transform="matrix(.74120 0 0 .74354 484 80.937)"
       sodipodi:cy="64.4394"
       sodipodi:cx="-234.50194" />
    <path
       id="path4085"
       sodipodi:rx="58.563705"
       sodipodi:ry="14.826255"
       style="stroke-linejoin:round;stroke:#000000;stroke-linecap:round;stroke-width:1.2723;fill:#e1dbd2;fill-opacity:1"
       sodipodi:type="arc"
       d="m -176.92664,70.864113 a 58.563705,14.826255 0 0 1 -58.5637,14.826255 58.563705,14.826255 0 0 1 -58.56371,-14.826255 58.563705,14.826255 0 0 1 58.56371,-14.826255 58.563705,14.826255 0 0 1 58.5637,14.826255 z"
       transform="matrix(.79124 0 0 .78072 497.98 73.341)"
       sodipodi:cy="70.864113"
       sodipodi:cx="-235.49034" />
    <path
       id="path4087"
       sodipodi:nodetypes="cc"
       style="stroke-linejoin:round;stroke:#000000;stroke-linecap:round;fill:#e1dbd2;fill-opacity:1"
       inkscape:connector-curvature="0"
       d="m278.87 121.5 32.32 18.74" />
    <path
       id="path4089"
       sodipodi:nodetypes="cc"
       style="stroke-linejoin:round;stroke:#000000;stroke-linecap:round;fill:#e1dbd2;fill-opacity:1"
       inkscape:connector-curvature="0"
       d="m278.51 121.32-7.3306 12.938" />
    <path
       id="rect4091"
       sodipodi:nodetypes="sssssssss"
       style="stroke-linejoin:round;stroke:#000000;stroke-linecap:round;fill:#e1dbd2;fill-opacity:1"
       inkscape:connector-curvature="0"
       d="m262.72 130.2 6.74 4.6737c0.57907 0.40154-0.19845 1.095-0.43449 1.2729l-0.40353 0.30413c-0.56277 0.42415-1.4169 0.5031-2.0008 0.10867l-6.9672-4.7062c-0.58392-0.39444 0.0336-0.97168 0.56432-1.4354l0.27371-0.23914c0.53073-0.46372 1.6489-0.38025 2.228 0.0213z" />
    <path
       id="path4097"
       sodipodi:nodetypes="ccccc"
       style="stroke-linejoin:round;stroke:#000000;stroke-linecap:round;stroke-width:2;fill:#95ab99;fill-opacity:1"
       inkscape:connector-curvature="0"
       d="m251.01 159.35 21.569 142.78c18.459 20.34 62.925 16.861 78.024-0.73493l17.63-141.68c-35.02 9.9816-73.537 16.684-117.22-0.36746z" />
    <path
       id="path4095"
       sodipodi:nodetypes="ccccc"
       style="stroke-linejoin:round;stroke:#000000;stroke-linecap:round;stroke-width:2;fill:#e1dbd2;fill-opacity:1"
       inkscape:connector-curvature="0"
       d="m247.62 143.61 1.2432 13.48c30.887 26.414 115.21 17.044 122.58-1.1561l0.82585-11.956c-33.458 20.097-74.123 15.247-124.65-0.36841z" />
    <path
       id="path4093"
       sodipodi:nodetypes="ccccccccc"
       style="stroke-linejoin:round;stroke:#000000;stroke-linecap:round;stroke-width:2;fill:#e1dbd2;fill-opacity:1"
       inkscape:connector-curvature="0"
       d="m254.71 128.54-1.4884 6.9281-4.3957 3.3072-1.1525 5.055c12.078 16.121 99.25 25.151 124.86 1.8821l-0.62538-5.4672-4.3957-4.4096-2.016-7.9006c-1.8315 21.421-99.794 23.769-110.78 0.60495z" />
  </g>
  <metadata
     id="metadata4183">
    <rdf:RDF>
      <cc:Work>
        <dc:format>image/svg+xml</dc:format>
        <dc:type
           rdf:resource="http://purl.org/dc/dcmitype/StillImage" />
        <cc:license
           rdf:resource="http://creativecommons.org/licenses/publicdomain/" />
        <dc:publisher>
          <cc:Agent
             rdf:about="http://openclipart.org/">
            <dc:title>Openclipart</dc:title>
          </cc:Agent>
        </dc:publisher>
        <dc:title>Coffee / cafe</dc:title>
        <dc:date>2011-04-09T19:02:31</dc:date>
        <dc:description />
        <dc:source>https://openclipart.org/detail/131791/coffee--cafe-by-lmproulx</dc:source>
        <dc:creator>
          <cc:Agent>
            <dc:title>lmproulx</dc:title>
          </cc:Agent>
        </dc:creator>
        <dc:subject>
          <rdf:Bag>
            <rdf:li>coffee</rdf:li>
            <rdf:li>coffee to go</rdf:li>
            <rdf:li>cup</rdf:li>
            <rdf:li>paper cup</rdf:li>
          </rdf:Bag>
        </dc:subject>
      </cc:Work>
      <cc:License
         rdf:about="http://creativecommons.org/licenses/publicdomain/">
        <cc:permits
           rdf:resource="http://creativecommons.org/ns#Reproduction" />
        <cc:permits
           rdf:resource="http://creativecommons.org/ns#Distribution" />
        <cc:permits
           rdf:resource="http://creativecommons.org/ns#DerivativeWorks" />
      </cc:License>
    </rdf:RDF>
  </metadata>
</svg>
